<svg width="16" height="16" viewBox="0 0 16 16" fill="none" xmlns="http://www.w3.org/2000/svg">
<path d="M0 8C0 3.58172 3.58172 0 8 0C12.4183 0 16 3.58172 16 8C16 12.4183 12.4183 16 8 16C3.58172 16 0 12.4183 0 8Z" fill="url(#paint0_linear_2305_1079)"/>
<path fill-rule="evenodd" clip-rule="evenodd" d="M6.81003 3.6442C6.81003 3.44659 6.80069 3.41615 6.71329 3.32874C6.58296 3.19841 6.57032 3.2001 5.98934 3.42449C5.56052 3.59013 4.90385 4.04498 4.4763 4.47253C4.05139 4.89744 3.59187 5.55964 3.43205 5.97729C3.39691 6.06917 3.34051 6.21647 3.30672 6.3046C3.25208 6.44711 3.14509 6.84405 3.08671 7.12066C3.06013 7.24668 3 7.87774 3 8.03077C3 8.20557 3.06212 8.81952 3.09879 9.00707C3.1572 9.30565 3.39965 9.98638 3.55123 10.2773C4.03273 11.2012 4.97802 12.1167 5.86761 12.5207C6.4473 12.7839 6.57767 12.8116 6.71494 12.7004C6.78242 12.6458 6.79427 12.6026 6.80463 12.3743C6.81631 12.1172 6.81413 12.1084 6.70872 11.9884C6.60312 11.8681 6.32982 11.7043 6.23477 11.7043C6.20839 11.7043 6.00939 11.5871 5.79255 11.4438C5.12986 11.0059 4.69741 10.5206 4.34548 9.81995C4.02882 9.18942 3.91842 8.71831 3.91842 7.99767C3.91842 7.27071 4.02806 6.80781 4.35421 6.15786C4.77538 5.31864 5.3789 4.73432 6.27624 4.29703C6.78378 4.04971 6.81003 4.01761 6.81003 3.6442ZM11.0529 4.05024C10.6042 3.70364 10.1943 3.48131 9.65934 3.29449C9.42433 3.21241 9.40388 3.21446 9.28612 3.33222C9.18892 3.42942 9.18628 3.44017 9.19776 3.69288C9.20696 3.89546 9.22427 3.96966 9.2757 4.02665C9.31204 4.06699 9.52815 4.19341 9.75591 4.30766C10.6595 4.76076 11.2268 5.31804 11.6574 6.1754C11.9741 6.80593 12.0845 7.27703 12.0845 7.99767C12.0845 8.66397 12.0413 8.87085 11.7256 9.71719C11.4434 10.4738 10.4069 11.4847 9.61876 11.7719C9.27209 11.8982 9.19409 12.0031 9.19336 12.3439C9.1929 12.5498 9.20144 12.5784 9.2896 12.6666C9.43674 12.8137 9.52249 12.799 10.1353 12.5207C10.8662 12.1887 11.6953 11.4651 12.1667 10.7474C12.473 10.281 12.7147 9.7709 12.8185 9.37111C13.0277 8.56611 13.056 7.77441 12.9038 6.98828C12.8463 6.69145 12.6037 6.00979 12.4517 5.7181C12.1423 5.12437 11.5882 4.4638 11.0529 4.05024ZM8.46395 5.15002C8.44945 4.8756 8.43519 4.80934 8.37816 4.75232C8.32276 4.69692 8.26306 4.68275 8.06459 4.67776C7.6 4.66614 7.55943 4.6989 7.54523 5.09697C7.53651 5.34068 7.53433 5.43845 7.48466 5.49289C7.44984 5.53105 7.39168 5.54791 7.29159 5.57883C7.17457 5.61497 7.02048 5.67428 6.94919 5.71065C6.76012 5.80712 6.42698 6.15866 6.32194 6.37261C6.23861 6.54229 6.23086 6.59038 6.23086 6.93864C6.23086 7.28531 6.23884 7.33548 6.32039 7.50148C6.49155 7.85004 6.87363 8.13141 7.30645 8.22768C7.40656 8.24996 7.54232 8.28176 7.60814 8.29841C7.67397 8.31502 7.76683 8.32862 7.81452 8.32862C7.90772 8.32862 8.1093 8.37171 8.39541 8.45276C8.68016 8.53348 8.9281 8.79476 8.9281 9.01415C8.9281 9.11989 8.82035 9.43396 8.75849 9.50849C8.66305 9.62349 8.2211 9.7848 8.00144 9.7848C7.88872 9.7848 7.60381 9.71394 7.4383 9.64474C7.28318 9.57987 7.11933 9.38759 7.0732 9.21636C7.05261 9.13984 6.98645 9.02795 6.92619 8.96768C6.82005 8.86155 6.80824 8.85814 6.54603 8.85814C6.29106 8.85814 6.26982 8.86373 6.17867 8.95488C6.12546 9.00809 6.08194 9.07263 6.08194 9.09834C6.08194 9.18343 6.21842 9.5675 6.29649 9.70206C6.48351 10.0244 6.87506 10.3199 7.24334 10.4166C7.37492 10.4512 7.49135 10.4882 7.50207 10.4988C7.5128 10.5095 7.52938 10.666 7.53894 10.8466C7.55496 11.1492 7.56347 11.1821 7.64726 11.2659C7.73119 11.3498 7.75843 11.3568 8.00144 11.3568C8.24489 11.3568 8.2716 11.3499 8.35626 11.2653C8.43923 11.1823 8.44869 11.1482 8.45756 10.9012C8.46629 10.6574 8.46804 10.5588 8.51789 10.5035C8.55386 10.4637 8.61486 10.4465 8.72159 10.4136C8.98933 10.3313 9.22295 10.1823 9.45666 9.94491C9.73685 9.66026 9.85403 9.36903 9.85403 8.95743C9.85403 8.40127 9.63084 8.03385 9.1364 7.77614C8.94535 7.67652 8.82515 7.64015 8.44823 7.5678C8.33901 7.54682 8.19581 7.51584 8.12999 7.49893C8.06416 7.48199 7.96729 7.46815 7.91474 7.46815C7.79152 7.46815 7.37906 7.31876 7.29685 7.24437C7.19032 7.14793 7.14098 7.01657 7.14098 6.82936C7.14098 6.53359 7.30529 6.34892 7.6473 6.26029C7.86734 6.20327 8.01664 6.19754 8.15371 6.2409C8.20647 6.25761 8.29099 6.28031 8.3415 6.2914C8.4801 6.32175 8.6977 6.53706 8.78206 6.72732C8.82336 6.82045 8.88177 6.90607 8.91189 6.91762C8.94197 6.92917 9.09199 6.93864 9.24522 6.93864C9.4797 6.93864 9.5343 6.92814 9.59 6.87245C9.68932 6.77313 9.67446 6.59399 9.54466 6.32545C9.37737 5.97935 9.08067 5.71955 8.71299 5.59723C8.62197 5.56695 8.53262 5.52803 8.51442 5.51072C8.49621 5.49345 8.47351 5.33112 8.46395 5.15002Z" fill="white"/>
<defs>
<linearGradient id="paint0_linear_2305_1079" x1="16" y1="0.204204" x2="16" y2="16" gradientUnits="userSpaceOnUse">
<stop stop-color="#368CD1"/>
<stop offset="1" stop-color="#294C73"/>
</linearGradient>
</defs>
</svg>
